<svg height="464pt" viewBox="0 -31 464 463" width="464pt" xmlns="http://www.w3.org/2000/svg"><path d="m432 296.5v40h-400v-32h-32v96h464v-104zm-176 80h-48c-4.417969 0-8-3.582031-8-8s3.582031-8 8-8h48c4.417969 0 8 3.582031 8 8s-3.582031 8-8 8zm0 0" fill="#763a02"/><path d="m96 136.5h272c17.671875 0 32-14.328125 32-32h-336c0 17.671875 14.328125 32 32 32zm0 0" fill="#ffa900"/><path d="m328 96.5v-72c0-13.253906-10.746094-24-24-24s-24 10.746094-24 24v16l-17.375-17.375c-4.246094-4.242188-10-6.625-16-6.625-12.496094 0-22.625 10.128906-22.625 22.625 0 6 2.382812 11.753906 6.625 16l17.375 17.375v24zm0 0" fill="#008100"/><path d="m256 104.5c0-17.671875 14.328125-32 32-32h24v-16c0-13.253906 10.746094-24 24-24s24 10.746094 24 24v16l17.375-17.375c4.246094-4.242188 10-6.625 16-6.625 12.496094 0 22.625 10.128906 22.625 22.625 0 6-2.382812 11.753906-6.625 16l-17.375 17.375zm0 0" fill="#33bc00"/><path d="m96 104.5v-8c0-44.183594 35.816406-80 80-80s80 35.816406 80 80v8zm0 0" fill="#ffdaaa"/><g fill="#ffa900"><path d="m144 40.5h16v16h-16zm0 0"/><path d="m176 64.5h16v16h-16zm0 0"/><path d="m120 72.5h16v16h-16zm0 0"/><path d="m208 56.5h16v16h-16zm0 0"/></g><path d="m208 168.5h48v80h32l-56 56-56-56h32zm0 0" fill="#6cbbc7"/></svg>